#!OML:ASF G:\JayActor3\Patient Classification 1\Patient 1\Session 2\male.ASF
:FULLY-SPECIFIED
:DEGREES
1508
root 34.0965 16.0822 -6.28024 1315.13 -277.943 -1193.57
lowerback 0.48178 1.65188 5.35891
upperback 2.94309 2.16967 1.97132
thorax 2.88574 1.21914 -0.918936
lowerneck -9.62837 -3.10319 -2.50257
upperneck 35.6065 -3.27951 2.66287
head 13.76 -0.820206 1.18933
rclavicle -6.85807e-015 -5.56597e-015
rhumerus -44.5212 51.7699 -110.933
rradius 74.1416
rwrist -1.14401
rhand -35.0606 9.69449
rfingers 7.12502
rthumb -8.20325 -20.1263
lclavicle -6.85807e-015 -5.56597e-015
lhumerus -59.7685 -50.222 99.2088
lradius 75.1619
lwrist 7.98637
lhand -22.3058 9.02422
lfingers 7.12502
lthumb 4.11349 38.9643
rfemur -1.91252 -4.27267 34.0358
rtibia 46.8999
rfoot -26.1635 -8.46482
rtoes 17
lfemur -26.692 5.3645 -17.068
ltibia 20.9751
lfoot -12.4372 5.51721
ltoes -25.228
1509
root 34.3667 16.095 -6.30645 1317.59 -278.104 -1191.24
lowerback -0.011389 1.75354 5.6636
upperback 2.78182 2.26699 2.02404
thorax 3.01377 1.27271 -1.0175
lowerneck -9.61711 -3.16626 -2.59825
upperneck 35.7383 -3.34563 2.67653
head 13.8226 -0.853806 1.20556
rclavicle -3.60297e-015 3.49861e-014
rhumerus -44.7906 51.5453 -111.052
rradius 74.1169
rwrist -1.15668
rhand -35.0026 9.67315
rfingers 7.12502
rthumb -8.14728 -20.1498
lclavicle -3.60297e-015 3.49861e-014
lhumerus -60.5933 -50.2093 99.3213
lradius 75.2934
lwrist 8.01581
lhand -21.9066 9.01093
lfingers 7.12502
lthumb 4.49896 38.9432
rfemur -0.755615 -4.48197 34.1443
rtibia 46.4151
rfoot -25.9369 -8.10718
rtoes 15.9222
lfemur -26.0369 5.33772 -16.8579
ltibia 18.8584
lfoot -12.2145 6.14787
ltoes -24.7746
1510
root 34.6373 16.103 -6.3364 1320.54 -278.348 -1188.4
lowerback -0.497941 1.86365 6.10429
upperback 2.61512 2.37147 2.0994
thorax 3.13917 1.33338 -1.16662
lowerneck -9.61923 -3.21132 -2.68863
upperneck 35.8687 -3.39335 2.70896
head 13.8874 -0.876306 1.23096
rclavicle -4.59441e-014 -1.03368e-014
rhumerus -45.0721 51.2875 -111.163
rradius 74.0705
rwrist -1.14253
rhand -34.96 9.6646
rfingers 7.12502
rthumb -8.10612 -20.1599
lclavicle -4.59441e-014 -1.03368e-014
lhumerus -61.268 -50.115 99.3922
lradius 75.3806
lwrist 8.05981
lhand -21.428 8.9818
lfingers 7.12502
lthumb 4.9611 38.9037
rfemur 0.330318 -4.63245 34.308
rtibia 46.0574
rfoot -25.543 -7.68666
rtoes 14.7117
lfemur -25.4911 5.03809 -16.3875
ltibia 17.4716
lfoot -12.0741 6.93744
ltoes -24.1706
1511
root 34.9069 16.1052 -6.36914 1323.82 -278.669 -1185.25
lowerback -0.974502 1.97778 6.6566
upperback 2.44655 2.47624 2.18487
thorax 3.26334 1.39726 -1.36568
lowerneck -9.63831 -3.23341 -2.76386
upperneck 35.9718 -3.42153 2.76337
head 13.9433 -0.886847 1.2646
rclavicle 3.10104e-014 -1.98785e-015
rhumerus -45.3425 51.0277 -111.271
rradius 73.9971
rwrist -1.10487
rhand -34.9243 9.66356
rfingers 7.12502
rthumb -8.07173 -20.1623
lclavicle 3.10104e-014 -1.98785e-015
lhumerus -61.7898 -49.9337 99.3952
lradius 75.4438
lwrist 8.1189
lhand -20.9747 8.96125
lfingers 7.12502
lthumb 5.39881 38.8725
rfemur 1.28479 -4.77872 34.5004
rtibia 45.9052
rfoot -25.003 -7.18817
rtoes 13.4033
lfemur -25.0917 4.6127 -15.7361
ltibia 16.782
lfoot -12.0919 7.58831
ltoes -23.4752
1512
root 35.1737 16.1017 -6.40359 1327.2 -279.041 -1182.02
lowerback -1.43256 2.08985 7.27448
upperback 2.27928 2.57378 2.26443
thorax 3.38305 1.45945 -1.60617
lowerneck -9.67509 -3.22941 -2.81577
upperneck 36.0251 -3.43073 2.84197
head 13.9795 -0.88545 1.30526
rclavicle 6.21202e-015 -5.1684e-015
rhumerus -45.5822 50.7887 -111.383
rradius 73.8984
rwrist -1.05757
rhand -34.8773 9.66229
rfingers 7.12502
rthumb -8.02635 -20.1653
lclavicle 6.21202e-015 -5.1684e-015
lhumerus -62.1701 -49.6609 99.3181
lradius 75.5
lwrist 8.18553
lhand -20.6073 8.96723
lfingers 7.12502
lthumb 5.75351 38.8691
rfemur 2.0522 -4.96319 34.6773
rtibia 46.029
rfoot -24.339 -6.58766
rtoes 12.1825
lfemur -24.816 4.14581 -14.976
ltibia 16.6561
lfoot -12.2129 7.88178
ltoes -22.9604
1513
root 35.4366 16.0932 -6.43874 1330.5 -279.418 -1178.9
lowerback -1.86678 2.19246 7.89075
upperback 2.1135 2.65628 2.32048
thorax 3.49223 1.51411 -1.87009
lowerneck -9.72082 -3.19924 -2.83932
upperneck 36.0087 -3.42129 2.93762
head 13.9846 -0.873507 1.34862
rclavicle -3.32964e-015 7.15625e-015
rhumerus -45.786 50.5837 -111.508
rradius 73.7787
rwrist -1.01285
rhand -34.8051 9.66368
rfingers 7.12502
rthumb -7.95671 -20.1666
lclavicle -3.32964e-015 7.15625e-015
lhumerus -62.4272 -49.2916 99.1614
lradius 75.5629
lwrist 8.26455
lhand -20.4004 9.00169
lfingers 7.12502
lthumb 5.95326 38.898
rfemur 2.58058 -5.22079 34.7718
rtibia 46.4948
rfoot -23.5456 -5.88135
rtoes 11.1646
lfemur -24.5996 3.66636 -14.1799
ltibia 16.8908
lfoot -12.3729 7.70252
ltoes -22.6781
1514
root 35.6951 16.0805 -6.47336 1333.62 -279.752 -1175.97
lowerback -2.27352 2.28153 8.43779
upperback 1.95711 2.72098 2.34315
thorax 3.59325 1.55831 -2.13104
lowerneck -9.77262 -3.1473 -2.82992
upperneck 35.9156 -3.39778 3.03967
head 13.9544 -0.854189 1.38853
rclavicle -1.92324e-014 4.77083e-015
rhumerus -45.9442 50.4204 -111.643
rradius 73.6425
rwrist -0.970806
rhand -34.7207 9.64672
rfingers 7.12502
rthumb -7.87524 -20.1866
lclavicle -1.92324e-014 4.77083e-015
lhumerus -62.5719 -48.8371 98.9412
lradius 75.6293
lwrist 8.35465
lhand -20.3824 9.06506
lfingers 7.12502
lthumb 5.97061 38.9609
rfemur 2.84056 -5.55326 34.7371
rtibia 47.3508
rfoot -22.6113 -5.07965
rtoes 10.5897
lfemur -24.3604 3.17536 -13.4005
ltibia 17.2864
lfoot -12.504 7.06004
ltoes -22.5579
1515
root 35.9494 16.0638 -6.50641 1336.61 -280.012 -1173.21
lowerback -2.65803 2.35563 8.86615
upperback 1.81234 2.7682 2.32902
thorax 3.68836 1.591 -2.36576
lowerneck -9.82872 -3.07804 -2.80258
upperneck 35.7501 -3.36361 3.15158
head 13.8915 -0.830391 1.42856
rclavicle -2.9122e-014 -2.42517e-014
rhumerus -46.0531 50.2891 -111.779
rradius 73.4993
rwrist -0.938546
rhand -34.6158 9.62643
rfingers 7.12502
rthumb -7.77399 -20.2107
lclavicle -2.9122e-014 -2.42517e-014
lhumerus -62.6141 -48.3093 98.6767
lradius 75.6934
lwrist 8.44673
lhand -20.5538 9.15766
lfingers 7.12502
lthumb 5.80512 39.0581
rfemur 2.80446 -5.94659 34.549
rtibia 48.6243
rfoot -21.4873 -4.23529
rtoes 10.6084
lfemur -24.0528 2.70767 -12.6872
ltibia 17.6977
lfoot -12.559 6.04675
ltoes -22.47
1516
root 36.1997 16.0439 -6.53698 1339.6 -280.18 -1170.46
lowerback -3.02017 2.41369 9.14675
upperback 1.68203 2.79903 2.28115
thorax 3.77825 1.61206 -2.55559
lowerneck -9.88467 -2.99187 -2.74229
upperneck 35.5142 -3.31396 3.24892
head 13.7951 -0.801119 1.45685
rclavicle -8.89561e-015 -1.23246e-014
rhumerus -46.1196 50.1926 -111.913
rradius 73.3623
rwrist -0.914587
rhand -34.4951 9.60452
rfingers 7.12502
rthumb -7.65746 -20.2368
lclavicle -8.89561e-015 -1.23246e-014
lhumerus -62.5647 -47.7118 98.3807
lradius 75.755
lwrist 8.55135
lhand -20.8653 9.26681
lfingers 7.12502
lthumb 5.50441 39.1753
rfemur 2.46178 -6.36416 34.2108
rtibia 50.3121
rfoot -20.1294 -3.46628
rtoes 11.2039
lfemur -23.6654 2.38337 -12.1064
ltibia 18.0418
lfoot -12.4224 4.92916
ltoes -22.3813
1517
root 36.4459 16.0223 -6.5646 1342.69 -280.258 -1167.63
lowerback -3.34736 2.45594 9.27345
upperback 1.5677 2.81719 2.20571
thorax 3.85677 1.62305 -2.69139
lowerneck -9.94466 -2.89308 -2.65066
upperneck 35.224 -3.24975 3.32162
head 13.6739 -0.767624 1.46988
rclavicle 4.95471e-014 -1.98785e-015
rhumerus -46.1423 50.1275 -112.03
rradius 73.2424
rwrist -0.904944
rhand -34.3678 9.5954
rfingers 7.12502
rthumb -7.53459 -20.2504
lclavicle 4.95471e-014 -1.98785e-015
lhumerus -62.4215 -47.0679 98.0703
lradius 75.8024
lwrist 8.6685
lhand -21.2726 9.38061
lfingers 7.12502
lthumb 5.11119 39.299
rfemur 1.8225 -6.76516 33.7477
rtibia 52.3866
rfoot -18.5001 -2.92272
rtoes 12.2907
lfemur -23.225 2.32505 -11.7061
ltibia 18.296
lfoot -11.9598 4.0002
ltoes -22.2489
1518
root 36.6874 16.0014 -6.58956 1345.99 -280.244 -1164.57
lowerback -3.60625 2.48207 9.24242
upperback 1.47024 2.82808 2.10656
thorax 3.90602 1.62598 -2.76826
lowerneck -9.99655 -2.78414 -2.52641
upperneck 34.8867 -3.16943 3.35779
head 13.5289 -0.730093 1.46337
rclavicle 4.38817e-014 2.78299e-014
rhumerus -46.127 50.088 -112.121
rradius 73.1495
rwrist -0.911095
rhand -34.2395 9.6057
rfingers 7.12502
rthumb -7.41078 -20.2445
lclavicle 4.38817e-014 2.78299e-014
lhumerus -62.1887 -46.3925 97.764
lradius 75.8267
lwrist 8.78602
lhand -21.7055 9.48395
lfingers 7.12502
lthumb 4.6931 39.412
rfemur 0.920236 -7.11193 33.1756
rtibia 54.8
rfoot -16.573 -2.7679
rtoes 13.6692
lfemur -22.761 2.56918 -11.5049
ltibia 18.4764
lfoot -11.0165 3.44075
ltoes -21.9858
1519
root 36.9225 15.9828 -6.61215 1349.55 -280.135 -1161.22
lowerback -3.75565 2.48925 9.04793
upperback 1.38809 2.83429 1.98238
thorax 3.90106 1.62115 -2.78599
lowerneck -10.0325 -2.66661 -2.36958
upperneck 34.5145 -3.07282 3.35482
head 13.3645 -0.68806 1.43699
rclavicle -8.84592e-015 1.19271e-014
rhumerus -46.069 50.0635 -112.172
rradius 73.0785
rwrist -0.921507
rhand -34.1273 9.63541
rfingers 7.12502
rthumb -7.30248 -20.2186
lclavicle -8.84592e-015 1.19271e-014
lhumerus -61.8599 -45.7096 97.4711
lradius 75.8155
lwrist 8.89865
lhand -22.1056 9.56775
lfingers 7.12502
lthumb 4.30678 39.504
rfemur -0.210184 -7.37441 32.5084
rtibia 57.4993
rfoot -14.3634 -3.10326
rtoes 15.2936
lfemur -22.3114 3.1112 -11.5082
ltibia 18.6254
lfoot -9.39006 3.32866
ltoes -21.5194
1520
root 37.1491 15.9682 -6.63243 1353.32 -279.899 -1157.58
lowerback -3.73918 2.47046 8.65367
upperback 1.32833 2.83412 1.82486
thorax 3.8158 1.60652 -2.73532
lowerneck -10.0533 -2.54385 -2.19412
upperneck 34.123 -2.96448 3.32608
head 13.189 -0.642746 1.39857
rclavicle 2.75317e-014 1.90833e-014
rhumerus -45.9489 50.0356 -112.166
rradius 73.0095
rwrist -0.922025
rhand -34.0479 9.67321
rfingers 7.12502
rthumb -7.22581 -20.1834
lclavicle 2.75317e-014 1.90833e-014
lhumerus -61.4093 -45.0515 97.1989
lradius 75.7364
lwrist 8.98537
lhand -22.4491 9.62243
lfingers 7.12502
lthumb 3.97512 39.5651
rfemur -1.51316 -7.54871 31.7205
rtibia 60.4237
rfoot -11.9324 -3.94169
rtoes 17.2129
lfemur -21.893 3.93692 -11.753
ltibia 18.8022
lfoot -7.01331 3.52549
ltoes -20.4626
1521
root 37.3657 15.9584 -6.65062 1357.27 -279.481 -1153.66
lowerback -3.53172 2.4199 8.00774
upperback 1.30102 2.82188 1.61433
thorax 3.64457 1.57893 -2.60843
lowerneck -10.0742 -2.42185 -2.01827
upperneck 33.7298 -2.85518 3.29337
head 13.0151 -0.597609 1.3589
rclavicle -3.57812e-014 -3.10104e-014
rhumerus -45.7347 49.9728 -112.079
rradius 72.9121
rwrist -0.896923
rhand -34.0077 9.712
rfingers 7.12502
rthumb -7.18696 -20.146
lclavicle -3.57812e-014 -3.10104e-014
lhumerus -60.7957 -44.4594 96.9363
lradius 75.5592
lwrist 9.04749
lhand -22.7217 9.66435
lfingers 7.12502
lthumb 3.7119 39.6118
rfemur -2.94135 -7.67226 30.7393
rtibia 63.5115
rfoot -9.35429 -5.18755
rtoes 19.3746
lfemur -21.5228 5.04494 -12.3148
ltibia 19.0684
lfoot -4.099 3.70473
ltoes -18.8294
1522
root 37.5716 15.9533 -6.66684 1361.44 -278.824 -1149.43
lowerback -3.16269 2.33203 7.05774
upperback 1.31678 2.78351 1.3318
thorax 3.41268 1.53255 -2.39392
lowerneck -10.1067 -2.30362 -1.84201
upperneck 33.3431 -2.75075 3.2621
head 12.849 -0.554143 1.31945
rclavicle -3.47873e-015 -7.95139e-016
rhumerus -45.3958 49.8509 -111.889
rradius 72.7584
rwrist -0.842348
rhand -33.9907 9.7413
rfingers 7.12502
rthumb -7.17057 -20.1172
lclavicle -3.47873e-015 -7.95139e-016
lhumerus -59.9756 -43.9729 96.6684
lradius 75.251
lwrist 9.07779
lhand -22.9496 9.69666
lfingers 7.12502
lthumb 3.49178 39.6478
rfemur -4.46104 -7.80976 29.4856
rtibia 66.6876
rfoot -6.78535 -6.63018
rtoes 21.608
lfemur -21.1885 6.33974 -13.2449
ltibia 19.4506
lfoot -0.987416 3.56872
ltoes -16.889
